<svg width="20" height="20" viewBox="0 0 20 20" fill="none" xmlns="http://www.w3.org/2000/svg">
<path fill-rule="evenodd" clip-rule="evenodd" d="M6.17317 0.761205C7.38642 0.258658 8.68678 0 10 0C11.3132 0 12.6136 0.258658 13.8268 0.761205C15.0401 1.26375 16.1425 2.00035 17.0711 2.92893C17.9997 3.85752 18.7362 4.95991 19.2388 6.17317C19.7413 7.38642 20 8.68678 20 10C20 11.3132 19.7413 12.6136 19.2388 13.8268C18.7362 15.0401 17.9997 16.1425 17.0711 17.0711C16.1425 17.9997 15.0401 18.7362 13.8268 19.2388C12.6136 19.7413 11.3132 20 10 20C8.68678 20 7.38642 19.7413 6.17317 19.2388C4.95991 18.7362 3.85752 17.9997 2.92893 17.0711C2.00035 16.1425 1.26375 15.0401 0.761205 13.8268C0.258658 12.6136 0 11.3132 0 10C0 8.68678 0.258658 7.38642 0.761205 6.17317C1.26375 4.95991 2.00035 3.85752 2.92893 2.92893C3.85752 2.00035 4.95991 1.26375 6.17317 0.761205ZM10 2C8.94943 2 7.90914 2.20693 6.93853 2.60896C5.96793 3.011 5.08601 3.60028 4.34315 4.34315C3.60028 5.08601 3.011 5.96793 2.60896 6.93853C2.20693 7.90914 2 8.94943 2 10C2 11.0506 2.20693 12.0909 2.60896 13.0615C3.011 14.0321 3.60028 14.914 4.34315 15.6569C5.08601 16.3997 5.96793 16.989 6.93853 17.391C7.90914 17.7931 8.94942 18 10 18C11.0506 18 12.0909 17.7931 13.0615 17.391C14.0321 16.989 14.914 16.3997 15.6569 15.6569C16.3997 14.914 16.989 14.0321 17.391 13.0615C17.7931 12.0909 18 11.0506 18 10C18 8.94942 17.7931 7.90914 17.391 6.93853C16.989 5.96793 16.3997 5.08602 15.6569 4.34315C14.914 3.60028 14.0321 3.011 13.0615 2.60896C12.0909 2.20693 11.0506 2 10 2ZM8 4C8.55228 4 9 4.44772 9 5H10C10 4.44772 10.4477 4 11 4C11.5523 4 12 4.44772 12 5V5.1481C13.1815 5.54654 14 6.69955 14 8C14 8.75636 13.7231 9.46284 13.259 10C13.7231 10.5372 14 11.2436 14 12C14 13.3005 13.1815 14.4535 12 14.8519V15C12 15.5523 11.5523 16 11 16C10.4477 16 10 15.5523 10 15H9C9 15.5523 8.55228 16 8 16C7.44772 16 7 15.5523 7 15C6.44772 15 6 14.5523 6 14C6 13.4477 6.44772 13 7 13V7C6.44772 7 6 6.55228 6 6C6 5.44772 6.44772 5 7 5C7 4.44772 7.44772 4 8 4ZM9 7V9H11.09C11.5499 9 12 8.59651 12 8C12 7.40349 11.5499 7 11.09 7H9ZM11.09 11H9V13H11.09C11.5499 13 12 12.5965 12 12C12 11.4035 11.5499 11 11.09 11Z" fill="#BEB4F4"/>
</svg>
