<svg width="40" height="40" viewBox="0 0 40 40" fill="none" xmlns="http://www.w3.org/2000/svg">
<path d="M0 8C0 3.58172 3.58172 0 8 0H32C36.4183 0 40 3.58172 40 8V32C40 36.4183 36.4183 40 32 40H8C3.58172 40 0 36.4183 0 32V8Z" fill="#BEB4F4"/>
<path fill-rule="evenodd" clip-rule="evenodd" d="M29.7072 10.2929C29.9813 10.5671 30.0723 10.975 29.9406 11.3397L23.4406 29.3397C23.4312 29.3657 23.4207 29.3914 23.4092 29.4166C23.2855 29.6864 23.087 29.9151 22.8372 30.0754C22.5874 30.2357 22.2969 30.3209 22.0001 30.3209C21.7033 30.3209 21.4127 30.2357 21.1629 30.0754C20.9191 29.9189 20.7242 29.6973 20.6 29.4359L17.2547 22.7454L10.5642 19.4001C10.3028 19.276 10.0812 19.081 9.92471 18.8372C9.76441 18.5874 9.6792 18.2968 9.6792 18C9.6792 17.7032 9.76441 17.4127 9.92471 17.1629C10.085 16.9131 10.3137 16.7146 10.5835 16.5909C10.6087 16.5794 10.6343 16.5689 10.6604 16.5595L28.6604 10.0595C29.0251 9.92779 29.433 10.0188 29.7072 10.2929ZM19.2168 22.1975L21.9322 27.6283L26.5366 14.8777L19.2168 22.1975ZM25.1224 13.4635L12.3718 18.0679L17.8026 20.7833L25.1224 13.4635Z" fill="#1F2626"/>
</svg>
