<svg width="24" height="25" viewBox="0 0 24 25" fill="none" xmlns="http://www.w3.org/2000/svg">
<path fill-rule="evenodd" clip-rule="evenodd" d="M6 5.3252C5.46957 5.3252 4.96086 5.53591 4.58579 5.91098C4.21071 6.28605 4 6.79476 4 7.3252V15.3252C4 15.8556 4.21071 16.3643 4.58579 16.7394C4.96086 17.1145 5.46957 17.3252 6 17.3252H8C8.55228 17.3252 9 17.7729 9 18.3252V19.5589L10.4935 18.6627C10.967 18.3786 11.5813 18.5321 11.8655 19.0057C12.1496 19.4792 11.9961 20.0935 11.5225 20.3777L8.51454 22.1827C8.20561 22.368 7.82084 22.3729 7.50732 22.1954C7.1938 22.0179 7 21.6855 7 21.3252V19.3252H6C4.93913 19.3252 3.92172 18.9038 3.17157 18.1536C2.42143 17.4035 2 16.3861 2 15.3252V7.3252C2 6.26433 2.42143 5.24691 3.17157 4.49677C3.92172 3.74662 4.93913 3.3252 6 3.3252H18C19.0609 3.3252 20.0783 3.74662 20.8284 4.49677C21.5786 5.24691 22 6.26433 22 7.3252V11.8252C22 12.3775 21.5523 12.8252 21 12.8252C20.4477 12.8252 20 12.3775 20 11.8252V7.3252C20 6.79476 19.7893 6.28605 19.4142 5.91098C19.0391 5.53591 18.5304 5.3252 18 5.3252H6ZM7 9.3252C7 8.77291 7.44772 8.3252 8 8.3252H16C16.5523 8.3252 17 8.77291 17 9.3252C17 9.87748 16.5523 10.3252 16 10.3252H8C7.44772 10.3252 7 9.87748 7 9.3252ZM7 13.3252C7 12.7729 7.44772 12.3252 8 12.3252H13C13.5523 12.3252 14 12.7729 14 13.3252C14 13.8775 13.5523 14.3252 13 14.3252H8C7.44772 14.3252 7 13.8775 7 13.3252ZM15.1716 15.4968C15.9217 14.7466 16.9391 14.3252 18 14.3252C19.0609 14.3252 20.0783 14.7466 20.8284 15.4968C21.5786 16.2469 22 17.2643 22 18.3252C22 19.0458 21.8056 19.7463 21.4457 20.3567L22.7071 21.6181C23.0976 22.0086 23.0976 22.6418 22.7071 23.0323C22.3166 23.4228 21.6834 23.4228 21.2929 23.0323L20.0315 21.7709C19.4212 22.1308 18.7206 22.3252 18 22.3252C16.9391 22.3252 15.9217 21.9038 15.1716 21.1536C14.4214 20.4035 14 19.3861 14 18.3252C14 17.2643 14.4214 16.2469 15.1716 15.4968ZM18 16.3252C17.4696 16.3252 16.9609 16.5359 16.5858 16.911C16.2107 17.2861 16 17.7948 16 18.3252C16 18.8556 16.2107 19.3643 16.5858 19.7394C16.9609 20.1145 17.4696 20.3252 18 20.3252C18.5304 20.3252 19.0391 20.1145 19.4142 19.7394C19.7893 19.3643 20 18.8556 20 18.3252C20 17.7948 19.7893 17.2861 19.4142 16.911C19.0391 16.5359 18.5304 16.3252 18 16.3252Z" fill="#354052"/>
</svg>
