<svg width="24" height="24" viewBox="0 0 24 24" fill="none" xmlns="http://www.w3.org/2000/svg">
<path fill-rule="evenodd" clip-rule="evenodd" d="M11.3372 2.25105C11.7156 1.91632 12.2841 1.91632 12.6625 2.25105C14.8036 4.14541 17.5982 5.13173 20.4541 5.00105C20.9143 4.97999 21.3293 5.27601 21.4592 5.71797C22.0832 7.84043 22.1551 10.087 21.6683 12.2451C21.5468 12.7838 21.0115 13.122 20.4728 13.0005C19.934 12.879 19.5958 12.3437 19.7173 11.8049C20.074 10.2241 20.0762 8.58706 19.7278 7.01064C16.9268 6.96258 14.2155 6.01037 11.9998 4.29724C9.78417 6.01037 7.07291 6.96258 4.27187 7.01064C4.00869 8.20149 3.945 9.42959 4.08513 10.6446C4.25403 12.1092 4.71561 13.5249 5.44245 14.8075C6.16929 16.0902 7.14655 17.2136 8.31616 18.1111C9.48576 19.0086 10.8239 19.6619 12.2509 20.032C12.7855 20.1707 13.1065 20.7165 12.9678 21.2511C12.8291 21.7857 12.2834 22.1066 11.7488 21.968C10.0622 21.5305 8.48087 20.7585 7.0986 19.6978C5.71634 18.6371 4.5614 17.3094 3.70241 15.7935C2.84342 14.2777 2.29791 12.6046 2.09829 10.8737C1.89868 9.14289 2.04904 7.38957 2.54043 5.71797C2.67035 5.27601 3.08537 4.97999 3.54555 5.00105C6.40145 5.13173 9.19603 4.14541 11.3372 2.25105ZM15.4999 17C15.4999 16.4477 15.9476 16 16.4999 16H20.9999C21.5522 16 21.9999 16.4477 21.9999 17V21.5C21.9999 22.0523 21.5522 22.5 20.9999 22.5C20.4476 22.5 19.9999 22.0523 19.9999 21.5V19.4142L16.707 22.7071C16.3165 23.0976 15.6833 23.0976 15.2928 22.7071C14.9022 22.3166 14.9022 21.6834 15.2928 21.2929L18.5857 18H16.4999C15.9476 18 15.4999 17.5523 15.4999 17Z" fill="white"/>
</svg>
