<svg width="22" height="12" viewBox="0 0 22 12" fill="none" xmlns="http://www.w3.org/2000/svg">
<path fill-rule="evenodd" clip-rule="evenodd" d="M16.7071 0.292893C17.0976 0.683417 17.0976 1.31658 16.7071 1.70711L11.7071 6.70711C11.3166 7.09763 10.6834 7.09763 10.2929 6.70711C9.90237 6.31658 9.90237 5.68342 10.2929 5.29289L15.2929 0.292893C15.6834 -0.0976311 16.3166 -0.0976311 16.7071 0.292893ZM21.7071 0.292893C22.0976 0.683417 22.0976 1.31658 21.7071 1.70711L11.7071 11.7071C11.3166 12.0976 10.6834 12.0976 10.2929 11.7071L5.29289 6.70711C4.90237 6.31658 4.90237 5.68342 5.29289 5.29289C5.68342 4.90237 6.31658 4.90237 6.70711 5.29289L11 9.58579L20.2929 0.292893C20.6834 -0.0976311 21.3166 -0.0976311 21.7071 0.292893ZM0.292893 5.29289C0.683417 4.90237 1.31658 4.90237 1.70711 5.29289L6.70711 10.2929C7.09763 10.6834 7.09763 11.3166 6.70711 11.7071C6.31658 12.0976 5.68342 12.0976 5.29289 11.7071L0.292893 6.70711C-0.0976311 6.31658 -0.0976311 5.68342 0.292893 5.29289Z" fill="#BEB4F4"/>
</svg>
